<svg width="87" height="87" viewBox="0 0 87 87" fill="none" xmlns="http://www.w3.org/2000/svg">
<rect x="1" y="1" width="85" height="85" rx="23" stroke="#383F3A" stroke-width="2"/>
<path d="M56 45.5C56.8284 45.5 57.5 44.8284 57.5 44C57.5 43.1716 56.8284 42.5 56 42.5V45.5ZM30.9393 42.9393C30.3536 43.5251 30.3536 44.4749 30.9393 45.0607L40.4853 54.6066C41.0711 55.1924 42.0208 55.1924 42.6066 54.6066C43.1924 54.0208 43.1924 53.0711 42.6066 52.4853L34.1213 44L42.6066 35.5147C43.1924 34.9289 43.1924 33.9792 42.6066 33.3934C42.0208 32.8076 41.0711 32.8076 40.4853 33.3934L30.9393 42.9393ZM56 42.5H32V45.5H56V42.5Z" fill="#383F3A"/>
</svg>
