<svg  xmlns="http://www.w3.org/2000/svg">

<symbol id="wrap" viewBox="0 0 23 23">
<path d="M2.875 16.5312H8.625V17.9688H2.875V16.5312ZM17.6259 10.0625H2.875V11.5H17.6094C18.2766 11.5 18.9164 11.765 19.3882 12.2368C19.86 12.7086 20.125 13.3484 20.125 14.0156C20.125 14.6828 19.86 15.3227 19.3882 15.7944C18.9164 16.2662 18.2766 16.5312 17.6094 16.5312H13.5326L15.3913 14.6726L14.375 13.6562L10.7812 17.25L14.375 20.8438L15.3913 19.8274L13.5326 17.9688H17.6331C18.6815 17.9678 19.6866 17.5504 20.4273 16.8084C21.168 16.0663 21.5836 15.0605 21.5826 14.012C21.5817 12.9636 21.1643 11.9585 20.4222 11.2178C19.6802 10.4771 18.6743 10.0615 17.6259 10.0625ZM2.875 3.59375H20.125V5.03125H2.875V3.59375Z"/>
</symbol>

<symbol id="copy" viewBox="0 0 24 24">
<g>
  <path d="M7 9.667C7 8.95967 7.28099 8.28131 7.78115 7.78115C8.28131 7.28099 8.95967 7 9.667 7H18.333C18.6832 7 19.03 7.06898 19.3536 7.20301C19.6772 7.33704 19.9712 7.53349 20.2189 7.78115C20.4665 8.0288 20.663 8.32281 20.797 8.64638C20.931 8.96996 21 9.31676 21 9.667V18.333C21 18.6832 20.931 19.03 20.797 19.3536C20.663 19.6772 20.4665 19.9712 20.2189 20.2189C19.9712 20.4665 19.6772 20.663 19.3536 20.797C19.03 20.931 18.6832 21 18.333 21H9.667C9.31676 21 8.96996 20.931 8.64638 20.797C8.32281 20.663 8.0288 20.4665 7.78115 20.2189C7.53349 19.9712 7.33704 19.6772 7.20301 19.3536C7.06898 19.03 7 18.6832 7 18.333V9.667Z" stroke-width="2" stroke-linecap="round" stroke-linejoin="round"/>
  <path d="M4.012 16.737C3.705 16.5626 3.44965 16.31 3.2719 16.0049C3.09415 15.6998 3.00034 15.3531 3 15V5C3 3.9 3.9 3 5 3H15C15.75 3 16.158 3.385 16.5 4" stroke-width="2" stroke-linecap="round" stroke-linejoin="round"/>
</g>
</symbol>

<symbol id="arrow-back" viewBox="0 0 31 13">
<g>
  <path d="M0.469667 5.96967C0.176775 6.26256 0.176775 6.73744 0.469667 7.03033L5.24264 11.8033C5.53553 12.0962 6.01041 12.0962 6.3033 11.8033C6.59619 11.5104 6.59619 11.0355 6.3033 10.7426L2.06066 6.5L6.3033 2.25736C6.59619 1.96447 6.59619 1.48959 6.3033 1.1967C6.01041 0.903806 5.53553 0.903806 5.24264 1.1967L0.469667 5.96967ZM31 5.75L0.999998 5.75V7.25L31 7.25V5.75Z"/>
</g>
</symbol>

<symbol id="offer-arrow" viewBox="0 0 148 211">
<g>
  <path
      d="M18.7655 1.73034C40.8687 6.54989 85.7688 28.6161 88.544 78.3245M88.544 78.3245C91.3191 128.033 40.1993 114.651 14.2926 101.747C6.00057 98.4991 -6.65437 86.882 9.06175 66.3976C24.7779 45.9133 68.5983 65.8138 88.544 78.3245ZM88.544 78.3245C114.599 100.268 158.919 156.962 127.753 208.19M127.753 208.19L124.502 186.662M127.753 208.19L146.434 195.965"
       stroke-width="3" stroke-linecap="round" />
</g>
</symbol>

</svg>