<svg width="82" height="81" viewBox="0 0 82 81" fill="none" xmlns="http://www.w3.org/2000/svg">
<g clip-path="url(#clip0_222_857)">
<path d="M41 0C30.1286 0 19.6928 4.26959 12.0117 11.8621C4.32276 19.4576 0.00220022 29.7585 0 40.5C0 51.2369 4.32422 61.5454 12.0117 69.1379C19.6928 76.7304 30.1286 81 41 81C51.8714 81 62.3072 76.7304 69.9883 69.1379C77.6758 61.5454 82 51.2369 82 40.5C82 29.7631 77.6758 19.4546 69.9883 11.8621C62.3072 4.26959 51.8714 0 41 0Z" fill="url(#paint0_linear_222_857)"/>
<path d="M18.5584 40.0722C30.5125 34.9287 38.4818 31.5377 42.4665 29.8991C53.8568 25.2207 56.2207 24.4082 57.7646 24.3807C58.1042 24.3753 58.8601 24.4582 59.3534 24.8521C59.7634 25.1843 59.8787 25.6336 59.9364 25.9491C59.9876 26.2642 60.0581 26.9825 60.0004 27.5432C59.3854 33.9472 56.714 49.4878 55.3559 56.6608C54.7857 59.6957 53.6518 60.7133 52.5564 60.8126C50.1732 61.0291 48.3667 59.2584 46.0604 57.7656C42.4537 55.4287 40.4165 53.9745 36.9123 51.6944C32.8636 49.0594 35.4901 47.6109 37.7964 45.2442C38.3986 44.6247 48.892 35.1989 49.0906 34.344C49.1162 34.237 49.1418 33.8384 48.8984 33.6283C48.6614 33.4176 48.309 33.4897 48.0528 33.5466C47.6876 33.6276 41.9284 37.3916 30.7559 44.8379C29.1223 45.9479 27.6425 46.4889 26.31 46.4604C24.8493 46.4294 22.0306 45.6429 19.9357 44.9708C17.3732 44.1463 15.3296 43.7102 15.509 42.3098C15.5987 41.5808 16.6173 40.8347 18.5584 40.0722Z" fill="white"/>
</g>
<defs>
<linearGradient id="paint0_linear_222_857" x1="4100" y1="0" x2="4100" y2="8100" gradientUnits="userSpaceOnUse">
<stop stop-color="#2AABEE"/>
<stop offset="1" stop-color="#229ED9"/>
</linearGradient>
<clipPath id="clip0_222_857">
<rect width="82" height="81" fill="white"/>
</clipPath>
</defs>
</svg>
