<svg width="146" height="94" viewBox="0 0 146 94" fill="none" xmlns="http://www.w3.org/2000/svg">
<path d="M74.8842 10.2415C72.6873 6.40756 69.3027 3.39207 65.2411 1.64988C61.1801 -0.0923149 56.6621 -0.466622 52.3692 0.583477C48.0763 1.63352 44.2415 4.051 41.4432 7.47102C38.6451 10.8911 37.0354 15.1283 36.8572 19.5432C36.6789 23.958 37.9417 28.3108 40.455 31.9456C42.9683 35.5798 46.5959 38.2985 50.79 39.6912C54.9842 41.0838 59.518 41.0748 63.7065 39.6652C67.8951 38.2562 71.5121 35.5228 74.0109 31.8785L68.3504 27.9995C66.6934 30.4164 64.2956 32.2288 61.5181 33.1628C58.74 34.0975 55.734 34.1037 52.9526 33.1803C50.1717 32.2564 47.766 30.4537 46.0994 28.044C44.4328 25.6338 43.5956 22.7476 43.7138 19.8196C43.832 16.8921 44.8994 14.0826 46.755 11.8147C48.6106 9.54686 51.1534 7.94382 53.9997 7.24749C56.8466 6.55122 59.8424 6.79941 62.5359 7.95465C65.2287 9.10994 67.4731 11.1096 68.9298 13.6518L74.8842 10.2415Z" fill="#41B983"/>
<path d="M71.2922 24.1555C74.3484 20.9641 78.3603 18.8528 82.722 18.1404C87.0838 17.428 91.5589 18.1534 95.4721 20.2065C99.3853 22.2603 102.524 25.5301 104.416 29.5236C106.307 33.5171 106.848 38.0171 105.956 42.3445C105.066 46.6725 102.791 50.5932 99.475 53.515C96.1599 56.4368 91.9843 58.2012 87.5774 58.5419C83.1711 58.8831 78.7739 57.7821 75.048 55.4052C71.3226 53.0283 68.4712 49.5046 66.9248 45.3656L73.3532 42.9644C74.3783 45.7091 76.2694 48.0454 78.7394 49.6219C81.21 51.1979 84.1263 51.9278 87.0482 51.7022C89.9702 51.476 92.7392 50.3056 94.9373 48.3681C97.1359 46.4311 98.6445 43.8314 99.2352 40.9615C99.8265 38.0916 99.4677 35.1077 98.2135 32.4595C96.9593 29.8112 94.878 27.643 92.2828 26.2814C89.6881 24.9198 86.7204 24.4386 83.8284 24.9113C80.9358 25.3834 78.2757 26.7834 76.2491 28.8997L71.2922 24.1555Z" fill="url(#paint0_radial_3_1162)"/>
<path d="M57.3378 26.9785C60.9211 26.9785 63.8259 24.0743 63.8259 20.4919C63.8259 16.9094 60.9211 14.0053 57.3378 14.0053C53.7545 14.0053 50.8496 16.9094 50.8496 20.4919C50.8496 24.0743 53.7545 26.9785 57.3378 26.9785Z" fill="#585858"/>
<path d="M86.1132 45.0282C89.6965 45.0282 92.6013 42.1241 92.6013 38.5416C92.6013 34.9591 89.6965 32.055 86.1132 32.055C82.5298 32.055 79.625 34.9591 79.625 38.5416C79.625 42.1241 82.5298 45.0282 86.1132 45.0282Z" fill="#585858"/>
<path d="M21.5372 93.5369H6.03302C5.63634 93.5369 5.2066 93.4929 4.7438 93.4049C4.292 93.3056 3.8402 93.1567 3.3884 92.9587C2.94765 92.7602 2.52338 92.5069 2.1157 92.1984C1.70796 91.8791 1.34434 91.4989 1.02479 91.0579C0.716235 90.6066 0.468331 90.0888 0.280965 89.505C0.0936546 88.9099 0 88.2432 0 87.5055V75.8718C0 75.4753 0.0440629 75.0511 0.132245 74.5993C0.231373 74.1362 0.380148 73.685 0.578517 73.2439C0.776829 72.7927 1.03579 72.3629 1.35535 71.9551C1.6749 71.5478 2.05511 71.1896 2.49585 70.8811C2.94765 70.5618 3.46558 70.308 4.04957 70.1208C4.63361 69.9335 5.29479 69.8399 6.03302 69.8399H21.5372V74.1363H6.03302C5.47109 74.1363 5.0413 74.2852 4.7438 74.5824C4.44625 74.8802 4.29753 75.3208 4.29753 75.9046V87.5055C4.29753 88.056 4.44625 88.4858 4.7438 88.7943C5.05235 89.0916 5.4821 89.2405 6.03302 89.2405H21.5372V93.5369ZM49.289 77.8049C49.289 78.7857 49.1682 79.6612 48.9256 80.4328C48.683 81.2038 48.3524 81.8869 47.9338 82.4814C47.5259 83.0658 47.0525 83.5667 46.5126 83.9852C45.9727 84.4043 45.4051 84.7512 44.8099 85.0264C44.226 85.291 43.6309 85.4839 43.0248 85.6052C42.4298 85.7259 41.8678 85.7868 41.3389 85.7868L50.3141 93.5369H43.6694L34.7107 85.7868H31.6198V81.4904H41.3389C41.8788 81.4458 42.3691 81.3358 42.8099 81.1599C43.2617 80.9726 43.6474 80.7244 43.9669 80.4159C44.2976 80.1073 44.5509 79.7384 44.7275 79.3086C44.9036 78.8681 44.9916 78.3667 44.9916 77.8049V75.0951C44.9916 74.8526 44.9589 74.671 44.8928 74.5497C44.8375 74.4177 44.7603 74.3241 44.661 74.2688C44.5729 74.2028 44.4736 74.1639 44.3636 74.1532C44.2643 74.1419 44.1707 74.1363 44.0827 74.1363H29.9008V93.5369H25.6033V72.0047C25.6033 71.7074 25.6584 71.4265 25.7686 71.162C25.8788 70.8975 26.0275 70.6662 26.2149 70.4682C26.4132 70.2697 26.6446 70.1157 26.9091 70.0051C27.1735 69.8951 27.4601 69.8399 27.7686 69.8399H44.0827C45.0412 69.8399 45.8514 70.0164 46.5126 70.3689C47.1733 70.7102 47.7081 71.1456 48.1155 71.6742C48.5347 72.192 48.832 72.7538 49.008 73.3601C49.1953 73.9659 49.289 74.5333 49.289 75.0619V77.8049ZM81.1898 93.5369H76.8597V79.4243L69.2398 92.8262C69.0525 93.168 68.7879 93.4269 68.4465 93.6029C68.1159 93.7794 67.7577 93.8674 67.3718 93.8674C66.9971 93.8674 66.6445 93.7794 66.3139 93.6029C65.9946 93.4269 65.7413 93.168 65.5539 92.8262L57.9007 79.4243V93.5369H53.6033V71.6742C53.6033 71.1784 53.7466 70.7378 54.0332 70.352C54.3306 69.9668 54.7165 69.7079 55.1898 69.5759C55.4217 69.5206 55.653 69.5042 55.8843 69.5262C56.1157 69.537 56.3363 69.5866 56.5456 69.6746C56.7656 69.7519 56.9642 69.8675 57.1402 70.022C57.3168 70.1648 57.4658 70.3413 57.5871 70.5506L67.3718 87.5551L77.157 70.5506C77.4103 70.132 77.7573 69.8348 78.1985 69.6582C78.6499 69.4822 79.1187 69.4546 79.6033 69.5759C80.066 69.7079 80.4462 69.9668 80.7436 70.352C81.0414 70.7378 81.1898 71.1784 81.1898 71.6742V93.5369Z" fill="#585858"/>
<path d="M104.166 87.6211C104.166 88.2156 104.061 88.8603 103.851 89.5541C103.642 90.2372 103.301 90.8762 102.827 91.4713C102.364 92.0551 101.752 92.5453 100.992 92.9418C100.243 93.3383 99.3282 93.5369 98.2483 93.5369H90.4964C89.9012 93.5369 89.2563 93.432 88.5623 93.2227C87.8791 93.0134 87.2399 92.6778 86.6447 92.2147C86.0607 91.7409 85.5705 91.1295 85.1738 90.3804C84.7772 89.6206 84.5786 88.7007 84.5786 87.6211C84.5786 87.026 84.6835 86.3813 84.8929 85.6875C85.1022 84.9937 85.4384 84.3546 85.9011 83.7708C86.375 83.1758 86.9866 82.68 87.7358 82.2834C88.4963 81.8869 89.4165 81.6884 90.4964 81.6884H98.2483V85.7868H90.4964C89.9119 85.7868 89.4605 85.9684 89.1406 86.3322C88.8213 86.6847 88.6616 87.1253 88.6616 87.6538C88.6616 88.2156 88.8433 88.6567 89.2066 88.9759C89.5813 89.2845 90.0225 89.4385 90.5291 89.4385H98.2483C98.8322 89.4385 99.2842 89.2625 99.6035 88.9099C99.9234 88.5574 100.083 88.1169 100.083 87.5878V81.5891C100.083 81.0273 99.9065 80.5811 99.5538 80.2506C99.2125 79.9201 98.7769 79.7548 98.2483 79.7548H88.81V75.6733H98.2483C98.843 75.6733 99.4822 75.7782 100.165 75.9875C100.86 76.1967 101.499 76.538 102.083 77.0118C102.678 77.4743 103.174 78.0857 103.57 78.8461C103.967 79.5952 104.166 80.5095 104.166 81.5891V87.6211ZM124.017 79.9697H116.513V93.5369H112.166V79.9697H106.579V75.6733H112.166V69.8399H116.513V75.6733H124.017V79.9697ZM146 81.5891C146 82.1842 145.896 82.8289 145.686 83.5227C145.477 84.2057 145.135 84.8448 144.661 85.4399C144.199 86.0237 143.587 86.5138 142.826 86.9104C142.077 87.3069 141.163 87.5054 140.083 87.5054H132.331V83.4234H140.083C140.667 83.4234 141.119 83.2474 141.439 82.8949C141.758 82.5311 141.918 82.0849 141.918 81.5564C141.918 80.9946 141.736 80.5535 141.372 80.2342C141.019 79.915 140.59 79.7548 140.083 79.7548H132.331C131.747 79.7548 131.295 79.937 130.976 80.3002C130.656 80.6528 130.496 81.0933 130.496 81.6224V87.6211C130.496 88.1936 130.673 88.6398 131.025 88.9596C131.389 89.2788 131.835 89.4385 132.364 89.4385H140.083V93.5369H132.331C131.736 93.5369 131.091 93.432 130.397 93.2227C129.714 93.0134 129.074 92.6778 128.48 92.2147C127.896 91.7409 127.406 91.1295 127.008 90.3804C126.612 89.6206 126.414 88.7007 126.414 87.6211V81.5891C126.414 80.9946 126.518 80.3555 126.727 79.6724C126.937 78.9781 127.273 78.3396 127.736 77.7552C128.209 77.1607 128.821 76.6649 129.57 76.2684C130.331 75.8718 131.251 75.6733 132.331 75.6733H140.083C140.678 75.6733 141.317 75.7782 142 75.9875C142.694 76.1967 143.334 76.538 143.918 77.0118C144.513 77.4743 145.009 78.0857 145.405 78.8461C145.802 79.5952 146 80.5095 146 81.5891Z" fill="#41B983"/>
<defs>
<radialGradient id="paint0_radial_3_1162" cx="0" cy="0" r="1" gradientUnits="userSpaceOnUse" gradientTransform="translate(85.9994 38.2371) rotate(10.962) scale(28.1065 28.1003)">
<stop stop-color="#41B983"/>
</radialGradient>
</defs>
</svg>
