<svg width="146" height="94" viewBox="0 0 146 94" fill="none" xmlns="http://www.w3.org/2000/svg">
<path d="M74.8841 10.2415C72.6872 6.40755 69.3026 3.39207 65.241 1.64988C61.18 -0.0923148 56.662 -0.466622 52.3691 0.583476C48.0762 1.63352 44.2415 4.05099 41.4431 7.47102C38.645 10.8911 37.0354 15.1283 36.8571 19.5432C36.6789 23.958 37.9416 28.3108 40.455 31.9456C42.9683 35.5798 46.5958 38.2985 50.79 39.6911C54.9841 41.0838 59.5179 41.0748 63.7065 39.6652C67.895 38.2562 71.512 35.5228 74.0108 31.8784L68.3503 27.9994C66.6933 30.4164 64.2955 32.2287 61.518 33.1628C58.7399 34.0974 55.7339 34.1036 52.9525 33.1803C50.1716 32.2564 47.7659 30.4536 46.0993 28.044C44.4327 25.6338 43.5956 22.7475 43.7138 19.8195C43.832 16.8921 44.8993 14.0826 46.7549 11.8147C48.6105 9.54685 51.1533 7.94381 53.9996 7.24749C56.8465 6.55122 59.8423 6.7994 62.5358 7.95464C65.2286 9.10993 67.473 11.1096 68.9297 13.6518L74.8841 10.2415Z" fill="#41B983"/>
<path d="M71.2923 24.1554C74.3485 20.964 78.3604 18.8528 82.7222 18.1404C87.0839 17.428 91.559 18.1534 95.4722 20.2065C99.3854 22.2602 102.525 25.53 104.416 29.5235C106.307 33.517 106.848 38.0171 105.956 42.3445C105.066 46.6724 102.791 50.5932 99.4751 53.515C96.16 56.4368 91.9844 58.2011 87.5775 58.5418C83.1712 58.8831 78.774 57.782 75.0481 55.4051C71.3228 53.0282 68.4714 49.5046 66.9249 45.3655L73.3533 42.9644C74.3784 45.709 76.2695 48.0453 78.7396 49.6219C81.2101 51.1978 84.1264 51.9277 87.0483 51.7021C89.9703 51.4759 92.7393 50.3055 94.9374 48.368C97.136 46.431 98.6446 43.8313 99.2353 40.9614C99.8266 38.0915 99.4678 35.1077 98.2136 32.4594C96.9594 29.8112 94.8781 27.643 92.2829 26.2814C89.6882 24.9197 86.7205 24.4386 83.8285 24.9113C80.9359 25.3834 78.2758 26.7834 76.2492 28.8997L71.2923 24.1554Z" fill="url(#paint0_radial_10_125)"/>
<path d="M57.3378 26.9785C60.9211 26.9785 63.8259 24.0743 63.8259 20.4919C63.8259 16.9094 60.9211 14.0053 57.3378 14.0053C53.7545 14.0053 50.8496 16.9094 50.8496 20.4919C50.8496 24.0743 53.7545 26.9785 57.3378 26.9785Z" fill="white"/>
<path d="M86.113 45.0282C89.6963 45.0282 92.6012 42.1241 92.6012 38.5416C92.6012 34.9592 89.6963 32.055 86.113 32.055C82.5297 32.055 79.6249 34.9592 79.6249 38.5416C79.6249 42.1241 82.5297 45.0282 86.113 45.0282Z" fill="white"/>
<path d="M21.5372 93.5368H6.03302C5.63634 93.5368 5.2066 93.4928 4.74379 93.4048C4.29199 93.3055 3.84019 93.1566 3.38839 92.9586C2.94765 92.7601 2.52338 92.5068 2.1157 92.1983C1.70796 91.879 1.34434 91.4989 1.02479 91.0578C0.716234 90.6065 0.468331 90.0887 0.280965 89.5049C0.0936546 88.9099 0 88.2431 0 87.5054V75.8718C0 75.4752 0.0440629 75.0511 0.132245 74.5993C0.231373 74.1362 0.380148 73.6849 0.578516 73.2438C0.776828 72.7926 1.03579 72.3628 1.35535 71.955C1.6749 71.5477 2.05511 71.1896 2.49585 70.881C2.94765 70.5618 3.46557 70.3079 4.04956 70.1207C4.63361 69.9334 5.29478 69.8398 6.03302 69.8398H21.5372V74.1362H6.03302C5.47109 74.1362 5.04129 74.2851 4.74379 74.5823C4.44624 74.8802 4.29752 75.3207 4.29752 75.9045V87.5054C4.29752 88.0559 4.44624 88.4857 4.74379 88.7942C5.05235 89.0915 5.48209 89.2404 6.03302 89.2404H21.5372V93.5368ZM49.2889 77.8048C49.2889 78.7857 49.1682 79.6611 48.9256 80.4327C48.683 81.2038 48.3524 81.8868 47.9338 82.4813C47.5259 83.0657 47.0525 83.5666 46.5126 83.9851C45.9726 84.4042 45.4051 84.7511 44.8099 85.0264C44.2259 85.2909 43.6308 85.4838 43.0248 85.6051C42.4297 85.7258 41.8677 85.7867 41.3388 85.7867L50.3141 93.5368H43.6693L34.7107 85.7867H31.6198V81.4903H41.3388C41.8787 81.4457 42.3691 81.3358 42.8099 81.1598C43.2617 80.9725 43.6473 80.7243 43.9669 80.4158C44.2976 80.1072 44.5509 79.7383 44.7275 79.3085C44.9035 78.868 44.9915 78.3666 44.9915 77.8048V75.0951C44.9915 74.8525 44.9588 74.6709 44.8928 74.5496C44.8375 74.4176 44.7602 74.324 44.6609 74.2687C44.5729 74.2027 44.4736 74.1638 44.3636 74.1531C44.2643 74.1418 44.1706 74.1362 44.0826 74.1362H29.9008V93.5368H25.6032V72.0046C25.6032 71.7074 25.6584 71.4265 25.7686 71.1619C25.8787 70.8974 26.0275 70.6661 26.2148 70.4681C26.4132 70.2696 26.6446 70.1156 26.9091 70.0051C27.1735 69.8951 27.46 69.8398 27.7685 69.8398H44.0826C45.0412 69.8398 45.8513 70.0163 46.5126 70.3689C47.1732 70.7101 47.7081 71.1456 48.1154 71.6741C48.5346 72.1919 48.8319 72.7537 49.008 73.36C49.1953 73.9658 49.2889 74.5333 49.2889 75.0618V77.8048ZM81.1897 93.5368H76.8596V79.4242L69.2397 92.8261C69.0524 93.1679 68.7878 93.4268 68.4465 93.6028C68.1158 93.7793 67.7576 93.8673 67.3717 93.8673C66.9971 93.8673 66.6444 93.7793 66.3138 93.6028C65.9945 93.4268 65.7412 93.1679 65.5539 92.8261L57.9007 79.4242V93.5368H53.6033V71.6741C53.6033 71.1783 53.7466 70.7378 54.0332 70.3519C54.3305 69.9667 54.7164 69.7078 55.1898 69.5758C55.4216 69.5205 55.653 69.5042 55.8843 69.5262C56.1156 69.5369 56.3362 69.5865 56.5455 69.6745C56.7655 69.7518 56.9641 69.8674 57.1402 70.022C57.3167 70.1647 57.4657 70.3412 57.587 70.5505L67.3717 87.555L77.1569 70.5505C77.4103 70.132 77.7572 69.8347 78.1984 69.6582C78.6498 69.4822 79.1186 69.4545 79.6032 69.5758C80.0659 69.7078 80.4461 69.9667 80.7435 70.3519C81.0414 70.7378 81.1897 71.1783 81.1897 71.6741V93.5368Z" fill="white"/>
<path d="M104.165 87.621C104.165 88.2155 104.061 88.8602 103.851 89.554C103.642 90.2371 103.301 90.8762 102.827 91.4712C102.364 92.055 101.752 92.5452 100.992 92.9417C100.243 93.3383 99.3281 93.5368 98.2483 93.5368H90.4964C89.9012 93.5368 89.2563 93.4319 88.5623 93.2226C87.8791 93.0133 87.2399 92.6777 86.6447 92.2147C86.0607 91.7409 85.5704 91.1294 85.1738 90.3804C84.7772 89.6206 84.5786 88.7006 84.5786 87.621C84.5786 87.0259 84.6835 86.3812 84.8929 85.6874C85.1022 84.9936 85.4384 84.3546 85.9011 83.7708C86.375 83.1757 86.9866 82.6799 87.7358 82.2834C88.4963 81.8868 89.4165 81.6883 90.4964 81.6883H98.2483V85.7867H90.4964C89.9119 85.7867 89.4605 85.9683 89.1406 86.3321C88.8213 86.6847 88.6616 87.1252 88.6616 87.6537C88.6616 88.2155 88.8433 88.6566 89.2066 88.9759C89.5813 89.2844 90.0224 89.4384 90.5291 89.4384H98.2483C98.8322 89.4384 99.2841 89.2624 99.6035 88.9099C99.9234 88.5573 100.083 88.1168 100.083 87.5877V81.589C100.083 81.0272 99.9064 80.5811 99.5538 80.2505C99.2125 79.92 98.7769 79.7547 98.2483 79.7547H88.81V75.6732H98.2483C98.8429 75.6732 99.4822 75.7781 100.165 75.9874C100.86 76.1967 101.499 76.5379 102.083 77.0117C102.678 77.4743 103.174 78.0857 103.57 78.846C103.967 79.5951 104.165 80.5094 104.165 81.589V87.621ZM124.017 79.9696H116.513V93.5368H112.166V79.9696H106.579V75.6732H112.166V69.8398H116.513V75.6732H124.017V79.9696ZM146 81.589C146 82.1841 145.896 82.8288 145.686 83.5226C145.477 84.2057 145.135 84.8447 144.661 85.4398C144.198 86.0236 143.587 86.5138 142.826 86.9103C142.077 87.3068 141.163 87.5054 140.083 87.5054H132.331V83.4233H140.083C140.667 83.4233 141.119 83.2473 141.438 82.8948C141.758 82.531 141.917 82.0848 141.917 81.5563C141.917 80.9945 141.736 80.5534 141.372 80.2342C141.019 79.9149 140.59 79.7547 140.083 79.7547H132.331C131.747 79.7547 131.295 79.9369 130.976 80.3002C130.656 80.6527 130.496 81.0932 130.496 81.6223V87.621C130.496 88.1935 130.673 88.6397 131.025 88.9595C131.389 89.2788 131.835 89.4384 132.364 89.4384H140.083V93.5368H132.331C131.736 93.5368 131.091 93.4319 130.397 93.2226C129.714 93.0133 129.074 92.6777 128.48 92.2147C127.896 91.7409 127.405 91.1294 127.008 90.3804C126.612 89.6206 126.414 88.7006 126.414 87.621V81.589C126.414 80.9945 126.518 80.3554 126.727 79.6724C126.937 78.978 127.273 78.3395 127.736 77.7551C128.209 77.1606 128.821 76.6648 129.57 76.2683C130.331 75.8718 131.251 75.6732 132.331 75.6732H140.083C140.678 75.6732 141.317 75.7781 142 75.9874C142.694 76.1967 143.334 76.5379 143.918 77.0117C144.513 77.4743 145.009 78.0857 145.405 78.846C145.802 79.5951 146 80.5094 146 81.589Z" fill="#41B983"/>
<defs>
<radialGradient id="paint0_radial_10_125" cx="0" cy="0" r="1" gradientUnits="userSpaceOnUse" gradientTransform="translate(85.9995 38.237) rotate(10.962) scale(28.1065 28.1003)">
<stop stop-color="#41B983"/>
</radialGradient>
</defs>
</svg>
